<?xml version="1.0" encoding="UTF-8" standalone="no"?>
<!DOCTYPE svg PUBLIC "-//W3C//DTD SVG 1.0//EN" "http://www.w3.org/TR/2001/PR-SVG-20010719/DTD/svg10.dtd">
<svg width="49cm" height="20cm" viewBox="-1 38 964 387" xmlns="http://www.w3.org/2000/svg" xmlns:xlink="http://www.w3.org/1999/xlink">
  <g>
    <rect style="fill: #ffffff" x="100" y="200" width="200" height="40"/>
    <rect style="fill: none; fill-opacity:0; stroke-width: 2; stroke: #000000" x="100" y="200" width="200" height="40"/>
    <text style="fill: #000000;text-anchor:middle;font-size:12.7998;font-family:sanserif;font-style:normal;font-weight:normal" x="200" y="223.9">
      <tspan x="200" y="223.9">Development VM</tspan>
    </text>
  </g>
  <g>
    <rect style="fill: #ffffff" x="320" y="200" width="200" height="38"/>
    <rect style="fill: none; fill-opacity:0; stroke-width: 2; stroke: #000000" x="320" y="200" width="200" height="38"/>
    <text style="fill: #000000;text-anchor:middle;font-size:12.7998;font-family:sanserif;font-style:normal;font-weight:normal" x="420" y="222.9">
      <tspan x="420" y="222.9">Production servers</tspan>
    </text>
  </g>
  <g>
    <rect style="fill: #ffffff" x="100" y="280" width="420" height="40"/>
    <rect style="fill: none; fill-opacity:0; stroke-width: 2; stroke: #000000" x="100" y="280" width="420" height="40"/>
    <text style="fill: #000000;text-anchor:middle;font-size:12.7998;font-family:sanserif;font-style:normal;font-weight:normal" x="310" y="303.9">
      <tspan x="310" y="303.9">Continuous deployment platform</tspan>
    </text>
  </g>
  <g>
    <rect style="fill: #ffffff" x="100" y="40" width="420" height="40"/>
    <rect style="fill: none; fill-opacity:0; stroke-width: 2; stroke: #000000" x="100" y="40" width="420" height="40"/>
    <text style="fill: #000000;text-anchor:middle;font-size:12.7998;font-family:sanserif;font-style:normal;font-weight:normal" x="310" y="63.9">
      <tspan x="310" y="63.9">Test-driven development</tspan>
    </text>
  </g>
  <g>
    <rect style="fill: #ffffff" x="100" y="120" width="420" height="40"/>
    <rect style="fill: none; fill-opacity:0; stroke-width: 2; stroke: #000000" x="100" y="120" width="420" height="40"/>
    <text style="fill: #000000;text-anchor:middle;font-size:12.7998;font-family:sanserif;font-style:normal;font-weight:normal" x="310" y="143.9">
      <tspan x="310" y="143.9">prod / pre-prod / dev / features branching process with VCS</tspan>
    </text>
  </g>
  <g>
    <line style="fill: none; fill-opacity:0; stroke-width: 2; stroke: #000000" x1="80" y1="40" x2="60" y2="40"/>
    <line style="fill: none; fill-opacity:0; stroke-width: 2; stroke: #000000" x1="80" y1="160" x2="60" y2="160"/>
    <line style="fill: none; fill-opacity:0; stroke-width: 2; stroke: #000000" x1="60" y1="40" x2="60" y2="160"/>
    <line style="fill: none; fill-opacity:0; stroke-width: 2; stroke: #000000" x1="40" y1="100" x2="60" y2="100"/>
    <text style="fill: #000000;text-anchor:middle;font-size:12.7998;font-family:sanserif;font-style:normal;font-weight:normal" x="140" y="104">
      <tspan x="140" y="104"></tspan>
    </text>
  </g>
  <g>
    <line style="fill: none; fill-opacity:0; stroke-width: 2; stroke: #000000" x1="80" y1="200" x2="60" y2="200"/>
    <line style="fill: none; fill-opacity:0; stroke-width: 2; stroke: #000000" x1="80" y1="320" x2="60" y2="320"/>
    <line style="fill: none; fill-opacity:0; stroke-width: 2; stroke: #000000" x1="60" y1="200" x2="60" y2="320"/>
    <line style="fill: none; fill-opacity:0; stroke-width: 2; stroke: #000000" x1="40" y1="260" x2="60" y2="260"/>
    <text style="fill: #000000;text-anchor:middle;font-size:12.7998;font-family:sanserif;font-style:normal;font-weight:normal" x="140" y="264">
      <tspan x="140" y="264"></tspan>
    </text>
  </g>
  <g>
    <line style="fill: none; fill-opacity:0; stroke-width: 2; stroke: #000000" x1="560" y1="40" x2="570" y2="40"/>
    <line style="fill: none; fill-opacity:0; stroke-width: 2; stroke: #000000" x1="560" y1="80" x2="570" y2="80"/>
    <line style="fill: none; fill-opacity:0; stroke-width: 2; stroke: #000000" x1="570" y1="40" x2="570" y2="80"/>
    <line style="fill: none; fill-opacity:0; stroke-width: 2; stroke: #000000" x1="580" y1="60" x2="570" y2="60"/>
    <text style="fill: #000000;text-anchor:middle;font-size:12.7998;font-family:sanserif;font-style:normal;font-weight:normal" x="530" y="64">
      <tspan x="530" y="64"></tspan>
    </text>
  </g>
  <text style="fill: #000000;text-anchor:start;font-size:12.7998;font-family:sanserif;font-style:normal;font-weight:normal" x="0" y="100">
    <tspan x="0" y="100">DEVS</tspan>
  </text>
  <text style="fill: #000000;text-anchor:start;font-size:12.7998;font-family:sanserif;font-style:normal;font-weight:normal" x="0" y="260">
    <tspan x="0" y="260">OPS</tspan>
  </text>
  <text style="fill: #000000;text-anchor:start;font-size:12.7998;font-family:sanserif;font-style:normal;font-weight:normal" x="600" y="220">
    <tspan x="600" y="220">Vagrant + Puppet/Chef to ensure same config</tspan>
  </text>
  <text style="fill: #000000;text-anchor:start;font-size:12.7998;font-family:sanserif;font-style:normal;font-weight:normal" x="600" y="300">
    <tspan x="600" y="300">Tests + Hudson + VCS process + Fabric/Capistrano</tspan>
  </text>
  <g>
    <line style="fill: none; fill-opacity:0; stroke-width: 2; stroke: #000000" x1="560" y1="280" x2="570" y2="280"/>
    <line style="fill: none; fill-opacity:0; stroke-width: 2; stroke: #000000" x1="560" y1="320" x2="570" y2="320"/>
    <line style="fill: none; fill-opacity:0; stroke-width: 2; stroke: #000000" x1="570" y1="280" x2="570" y2="320"/>
    <line style="fill: none; fill-opacity:0; stroke-width: 2; stroke: #000000" x1="580" y1="300" x2="570" y2="300"/>
    <text style="fill: #000000;text-anchor:middle;font-size:12.7998;font-family:sanserif;font-style:normal;font-weight:normal" x="530" y="304">
      <tspan x="530" y="304"></tspan>
    </text>
  </g>
  <g>
    <line style="fill: none; fill-opacity:0; stroke-width: 2; stroke: #000000" x1="560" y1="200" x2="570" y2="200"/>
    <line style="fill: none; fill-opacity:0; stroke-width: 2; stroke: #000000" x1="560" y1="240" x2="570" y2="240"/>
    <line style="fill: none; fill-opacity:0; stroke-width: 2; stroke: #000000" x1="570" y1="200" x2="570" y2="240"/>
    <line style="fill: none; fill-opacity:0; stroke-width: 2; stroke: #000000" x1="580" y1="220" x2="570" y2="220"/>
    <text style="fill: #000000;text-anchor:middle;font-size:12.7998;font-family:sanserif;font-style:normal;font-weight:normal" x="530" y="224">
      <tspan x="530" y="224"></tspan>
    </text>
  </g>
  <g>
    <line style="fill: none; fill-opacity:0; stroke-width: 2; stroke: #000000" x1="560" y1="120" x2="570" y2="120"/>
    <line style="fill: none; fill-opacity:0; stroke-width: 2; stroke: #000000" x1="560" y1="160" x2="570" y2="160"/>
    <line style="fill: none; fill-opacity:0; stroke-width: 2; stroke: #000000" x1="570" y1="120" x2="570" y2="160"/>
    <line style="fill: none; fill-opacity:0; stroke-width: 2; stroke: #000000" x1="580" y1="140" x2="570" y2="140"/>
    <text style="fill: #000000;text-anchor:middle;font-size:12.7998;font-family:sanserif;font-style:normal;font-weight:normal" x="530" y="144">
      <tspan x="530" y="144"></tspan>
    </text>
  </g>
  <text style="fill: #000000;text-anchor:start;font-size:12.7998;font-family:sanserif;font-style:normal;font-weight:normal" x="600" y="60">
    <tspan x="600" y="60">In Symfony : PHPUnit or lime for unit + functional tests</tspan>
  </text>
  <text style="fill: #000000;text-anchor:start;font-size:12.7998;font-family:sanserif;font-style:normal;font-weight:normal" x="600" y="140">
    <tspan x="600" y="140"></tspan>
  </text>
  <text style="fill: #000000;text-anchor:start;font-size:12.7998;font-family:sanserif;font-style:normal;font-weight:normal" x="600" y="140">
    <tspan x="600" y="140">Git or Hg to navigate efficiently between branches</tspan>
  </text>
  <g>
    <line style="fill: none; fill-opacity:0; stroke-width: 2; stroke: #000000" x1="0" y1="380" x2="950.264" y2="380"/>
    <polygon style="fill: #000000" points="957.764,380 947.764,385 950.264,380 947.764,375 "/>
    <polygon style="fill: none; fill-opacity:0; stroke-width: 2; stroke: #000000" points="957.764,380 947.764,385 950.264,380 947.764,375 "/>
  </g>
  <text style="fill: #000000;text-anchor:start;font-size:22.5774;font-family:sanserif;font-style:normal;font-weight:normal" x="160" y="420">
    <tspan x="160" y="420">RADD : Rapid Application Development &amp; Deployment</tspan>
  </text>
</svg>
